<svg xmlns="http://www.w3.org/2000/svg" class="editor-view__logo-preview" data-v-04588dbe="" data-v-0a059b40="" width="220.970703125" height="195.9499969482422" viewBox="0 0 220.970703125 195.9499969482422"><svg id="mark" viewBox="0 0 64 64" width="153" height="153" x="33.9853515625" y="0" data-v-04588dbe="" style="fill: rgb(0, 0, 0);"><rect x="0" y="0" width="100%" height="100%" fill="none" data-v-04588dbe=""></rect><g data-v-04588dbe=""><g xmlns="http://www.w3.org/2000/svg"><path d="M32.213,30.931c1.313,1.742,12.943-2.2,12.943-14.364c0-3.976-3.224-7.199-7.199-7.199c-2.351,0-4.431,1.13-5.744,2.872   c-1.314-1.742-3.394-2.872-5.743-2.872c-3.976,0-7.199,3.223-7.199,7.199C19.271,30.543,30.899,32.672,32.213,30.931z"></path><path d="M31.572,10.592l1.281,0.303c0.06-0.252,1.4-6.208-3.964-10.689l-0.843,1.01C32.769,5.162,31.624,10.372,31.572,10.592z"></path><path d="M45.356,2.743c-10.607-6.119-12.401,1.02-12.401,1.02C38.258,9.636,45.356,2.743,45.356,2.743z"></path><path d="M58.116,37.004c0.124-2.325-0.004-5.209-0.103-6.849l2.678-2.678l-15.028-5.511c-0.987,3.115-2.705,5.324-4.233,6.773   c-2.81,2.666-6.062,3.86-8.038,3.86c-0.461,0-0.841-0.064-1.153-0.166c-0.478,0.194-1.061,0.293-1.734,0.293   c-2.962,0-8.186-2.084-10.876-7.833L4.997,39.526c0,0-1.77,1.096-1.686,5.058c0.085,3.958,4.298,6.319,4.298,6.319l28.734,12.891   l24.18-24.184C61.075,37.48,58.451,37.049,58.116,37.004z M9.294,48.206c0,0-3.118-0.758-2.949-4.13   c0.118-2.361,1.937-2.779,1.937-2.779l26.416,11.154l0.224,7.479L9.294,48.206z M56.981,38.099L35.945,59.137l-0.203-6.709   L57.018,31.15C57.118,33.168,57.202,36.12,56.981,38.099z"></path></g></g></svg><svg id="name" viewBox="0 0 220.970703125 34.94921875" width="220.970703125" height="34.94921875" x="0" y="161" data-v-04588dbe="" style="fill: rgb(0, 0, 0);"><rect x="0" y="0" width="100%" height="100%" fill="none" data-v-04588dbe=""></rect><g data-v-04588dbe=""><path xmlns="http://www.w3.org/2000/svg" d="M13.75 10.04L13.66 16.28Q12.33 16.10 11.32 16.10L11.32 16.10Q7.64 16.10 6.49 18.60L6.49 18.60L6.49 34.50L0 34.50L0 10.20L6.13 10.20L6.31 13.09Q8.27 9.75 11.72 9.75L11.72 9.75Q12.80 9.75 13.75 10.04L13.75 10.04ZM27.54 34.95L27.54 34.95Q22.19 34.95 18.83 31.67Q15.48 28.39 15.48 22.93L15.48 22.93L15.48 22.30Q15.48 18.64 16.89 15.76Q18.31 12.87 20.90 11.31Q23.49 9.75 26.82 9.75L26.82 9.75Q31.80 9.75 34.67 12.89Q37.53 16.04 37.53 21.81L37.53 21.81L37.53 24.46L22.06 24.46Q22.37 26.84 23.95 28.28Q25.54 29.72 27.96 29.72L27.96 29.72Q31.71 29.72 33.83 27.00L33.83 27.00L37.02 30.57Q35.56 32.64 33.06 33.79Q30.57 34.95 27.54 34.95ZM26.80 15.00L26.80 15.00Q24.86 15.00 23.66 16.31Q22.46 17.61 22.12 20.04L22.12 20.04L31.15 20.04L31.15 19.52Q31.11 17.36 29.99 16.18Q28.86 15.00 26.80 15.00ZM61.86 34.50L55.30 34.50Q54.85 33.62 54.65 32.32L54.65 32.32Q52.29 34.95 48.52 34.95L48.52 34.95Q44.94 34.95 42.60 32.88Q40.25 30.82 40.25 27.67L40.25 27.67Q40.25 23.81 43.11 21.74Q45.98 19.68 51.39 19.65L51.39 19.65L54.38 19.65L54.38 18.26Q54.38 16.58 53.51 15.57Q52.65 14.55 50.78 14.55L50.78 14.55Q49.14 14.55 48.21 15.34Q47.28 16.13 47.28 17.50L47.28 17.50L40.79 17.50Q40.79 15.39 42.09 13.59Q43.39 11.79 45.78 10.77Q48.16 9.75 51.12 9.75L51.12 9.75Q55.61 9.75 58.25 12.01Q60.89 14.26 60.89 18.35L60.89 18.35L60.89 28.88Q60.91 32.34 61.86 34.12L61.86 34.12L61.86 34.50ZM49.93 29.99L49.93 29.99Q51.37 29.99 52.58 29.35Q53.79 28.71 54.38 27.63L54.38 27.63L54.38 23.45L51.95 23.45Q47.08 23.45 46.76 26.82L46.76 26.82L46.74 27.20Q46.74 28.41 47.59 29.20Q48.45 29.99 49.93 29.99ZM64.87 22.17L64.87 22.17Q64.87 16.49 67.42 13.12Q69.97 9.75 74.39 9.75L74.39 9.75Q77.94 9.75 80.25 12.40L80.25 12.40L80.25 0L86.77 0L86.77 34.50L80.90 34.50L80.59 31.92Q78.16 34.95 74.35 34.95L74.35 34.95Q70.06 34.95 67.46 31.57Q64.87 28.19 64.87 22.17ZM71.36 22.64L71.36 22.64Q71.36 26.05 72.55 27.87Q73.74 29.69 76.01 29.69L76.01 29.69Q79.02 29.69 80.25 27.16L80.25 27.16L80.25 17.56Q79.04 15.03 76.05 15.03L76.05 15.03Q71.36 15.03 71.36 22.64ZM91.80 10.20L97.88 10.20L98.09 12.92Q100.67 9.75 105.07 9.75L105.07 9.75Q109.77 9.75 111.52 13.45L111.52 13.45Q114.08 9.75 118.82 9.75L118.82 9.75Q122.77 9.75 124.70 12.05Q126.63 14.35 126.63 18.98L126.63 18.98L126.63 34.50L120.12 34.50L120.12 19.00Q120.12 16.94 119.31 15.98Q118.50 15.03 116.46 15.03L116.46 15.03Q113.54 15.03 112.42 17.81L112.42 17.81L112.44 34.50L105.95 34.50L105.95 19.02Q105.95 16.91 105.12 15.97Q104.29 15.03 102.29 15.03L102.29 15.03Q99.52 15.03 98.29 17.32L98.29 17.32L98.29 34.50L91.80 34.50L91.80 10.20ZM142.81 34.95L142.81 34.95Q137.46 34.95 134.10 31.67Q130.75 28.39 130.75 22.93L130.75 22.93L130.75 22.30Q130.75 18.64 132.16 15.76Q133.58 12.87 136.17 11.31Q138.76 9.75 142.09 9.75L142.09 9.75Q147.07 9.75 149.94 12.89Q152.80 16.04 152.80 21.81L152.80 21.81L152.80 24.46L137.33 24.46Q137.64 26.84 139.22 28.28Q140.81 29.72 143.23 29.72L143.23 29.72Q146.98 29.72 149.10 27.00L149.10 27.00L152.29 30.57Q150.83 32.64 148.33 33.79Q145.84 34.95 142.81 34.95ZM142.07 15.00L142.07 15.00Q140.13 15.00 138.93 16.31Q137.73 17.61 137.39 20.04L137.39 20.04L146.42 20.04L146.42 19.52Q146.38 17.36 145.25 16.18Q144.13 15.00 142.07 15.00ZM156.82 31.31L156.82 31.31Q156.82 29.76 157.87 28.79Q158.91 27.83 160.48 27.83L160.48 27.83Q162.08 27.83 163.12 28.79Q164.17 29.76 164.17 31.31L164.17 31.31Q164.17 32.84 163.13 33.79Q162.10 34.75 160.48 34.75L160.48 34.75Q158.89 34.75 157.86 33.79Q156.82 32.84 156.82 31.31ZM171.13 4.22L177.62 4.22L177.62 10.20L181.78 10.20L181.78 14.96L177.62 14.96L177.62 27.09Q177.62 28.44 178.14 29.02Q178.65 29.60 180.11 29.60L180.11 29.60Q181.19 29.60 182.02 29.45L182.02 29.45L182.02 34.37Q180.11 34.95 178.09 34.95L178.09 34.95Q171.26 34.95 171.13 28.05L171.13 28.05L171.13 14.96L167.58 14.96L167.58 10.20L171.13 10.20L171.13 4.22ZM190.65 10.20L194.65 17.45L198.73 10.20L205.67 10.20L198.76 22.10L205.97 34.50L199.00 34.50L194.67 26.86L190.36 34.50L183.37 34.50L190.58 22.10L183.69 10.20L190.65 10.20ZM210.08 4.22L216.57 4.22L216.57 10.20L220.72 10.20L220.72 14.96L216.57 14.96L216.57 27.09Q216.57 28.44 217.08 29.02Q217.60 29.60 219.06 29.60L219.06 29.60Q220.14 29.60 220.97 29.45L220.97 29.45L220.97 34.37Q219.06 34.95 217.04 34.95L217.04 34.95Q210.21 34.95 210.08 28.05L210.08 28.05L210.08 14.96L206.53 14.96L206.53 10.20L210.08 10.20L210.08 4.22Z"></path></g></svg><!----></svg>